<svg xmlns="http://www.w3.org/2000/svg" width="60" height="48" viewBox="0 0 60 48">
    <g fill="#C9C9C9" fill-rule="evenodd">
        <path d="M46.237 35.597l-3.513-2.523-.942 1.313-.47-.338 2.267-3.158.47.337-.946 1.318 3.513 2.523-.379.528zm-2.492 2.848l-4.443-1.32 2.461 2.966-.479.397-3.132-3.773.512-.426 4.441 1.317-2.46-2.962.48-.398 3.132 3.774-.512.425zM39.49 41.55l-1.134-1.117-1.867.847.122 1.575-.628.284-.308-5.245.637-.289 3.852 3.64-.674.305zm-5.503 2.042l-.357-2.284-2.518.394.358 2.284-.642.1-.758-4.846.642-.1.31 1.99 2.519-.395-.311-1.99.64-.1.759 4.846-.642.1zm-8.13-1.247c.083.323.243.577.48.76.235.184.502.294.798.33.361.043.68-.024.954-.202.276-.178.482-.467.62-.866l.625.241c-.199.513-.49.887-.875 1.123-.384.235-.83.322-1.337.261-.525-.063-.938-.221-1.242-.475-.303-.253-.515-.593-.638-1.02a3.34 3.34 0 0 1-.1-1.335c.062-.508.212-.938.45-1.292.24-.354.55-.608.931-.761a2.436 2.436 0 0 1 1.217-.152c.486.06.881.233 1.183.521.303.288.492.665.568 1.13l-.652.073c-.07-.368-.203-.646-.398-.833-.195-.188-.456-.301-.781-.34-.374-.046-.698.006-.97.155-.274.15-.48.369-.618.659-.138.29-.227.595-.265.917-.05.414-.034.782.05 1.106zm-1.279-2.458c-.135.32-.354.547-.654.678-.3.132-.68.136-1.138.011.125.144.214.27.264.378.107.234.188.505.242.811l.264 1.562-.751-.318-.2-1.193a9.48 9.48 0 0 0-.167-.805 1.485 1.485 0 0 0-.175-.43.966.966 0 0 0-.222-.236 1.94 1.94 0 0 0-.324-.163l-.692-.294-.85 2.006-.597-.253 1.913-4.517 2.002.849c.402.17.69.34.866.51.175.17.282.385.32.644.038.258.004.511-.1.76zm-5.343-1.09l-2.128-1.683-1.035 1.309 2.361 1.868-.359.454-2.87-2.27 3.041-3.848 2.781 2.2-.358.454-2.272-1.797-.932 1.178 2.128 1.683-.357.452zm-5.442-1.69l-.361-.512 3.353-2.367-4.174 1.203-.338-.479 2.593-3.566-3.41 2.407-.36-.511 4.006-2.828.563.798-2.168 2.951c-.203.274-.355.478-.458.61.178-.057.442-.137.793-.24l3.464-1.008.503.714-4.006 2.828zM51.415 26.41a.637.637 0 0 1-.364.114h-.653a.642.642 0 0 1-.498-.237l-3.146-3.862v.445c0 .967.048 1.528.093 1.908.065.017.194.04.434.05a.643.643 0 0 1 .616.642v.334a.642.642 0 0 1-.642.643H44.59a.637.637 0 0 1-.416-.157c-.24.174-.538.278-.87.278-.032 0-.062-.004-.093-.006-1.29 6.403-6.945 11.226-13.727 11.226-6.821 0-12.501-4.881-13.747-11.341h-.325a.64.64 0 0 1-.455-.19l-.258.13a1.711 1.711 0 0 1-.694.181c-.654 0-1.149-.195-1.476-.559a.629.629 0 0 1-.338.17c-.544.078-1.194.212-1.879.386a.644.644 0 0 1-.579-.137l-.084-.074a.641.641 0 0 1-.073-.074 2.156 2.156 0 0 1-2.027.07c.01.074.015.149.025.223l-1.387.244.362 2.055 1.383-.243c.133.592.284 1.178.463 1.752l-1.314.478.714 1.961 1.317-.48c.235.56.496 1.104.775 1.638l-1.223.706 1.043 1.808 1.23-.711c.329.506.677 1 1.044 1.476l-1.095.92 1.341 1.598 1.104-.927c.41.44.836.867 1.28 1.272l-.93 1.11 1.598 1.341.94-1.12c.479.36.975.698 1.483 1.02l-.739 1.28 1.807 1.043.747-1.294c.532.27 1.076.52 1.632.746l-.515 1.417 1.96.714.522-1.434c.568.17 1.146.32 1.732.445l-.268 1.521 2.054.363.274-1.548c.584.068 1.176.113 1.774.135v1.592h2.087V45.84a22.067 22.067 0 0 0 1.764-.175l.284 1.608 2.055-.363-.287-1.629a21.746 21.746 0 0 0 1.7-.473l.573 1.57 1.96-.714-.579-1.591c.54-.234 1.069-.488 1.585-.763l.857 1.485 1.808-1.043-.87-1.507c.488-.322.962-.663 1.422-1.022l1.131 1.35 1.599-1.343-1.146-1.365c.424-.399.835-.81 1.226-1.241l1.373 1.152 1.342-1.598-1.387-1.164c.347-.464.672-.945.982-1.436l1.584.915 1.043-1.808-1.596-.921c.261-.515.504-1.04.725-1.576l1.74.633.713-1.96-1.75-.638c.167-.55.31-1.109.435-1.675l1.847.325.363-2.055-1.86-.328c.004-.026.005-.052.009-.079z"/>
        <path d="M23.306 38.483l-1.429-.605-.633 1.494 1.284.544c.273.116.498.178.677.187a.74.74 0 0 0 .465-.122.795.795 0 0 0 .292-.354.731.731 0 0 0-.01-.626c-.096-.203-.311-.376-.646-.518M53.41 23.832c.029.068.074.116.105.179v-.185c-.033.003-.07.004-.104.006M40.7 12.276c.229.229.429.388.601.476.173.088.336.132.49.133.219 0 .45-.06.694-.183.245-.122.499-.314.761-.575.364-.362.584-.7.66-1.013.077-.314.064-.589-.04-.826-.075-.17-.248-.392-.52-.666l-.726-.731-2.657 2.642.738.743zM52.647 18.836v.337c0 .346-.273.63-.618.642-.12.005-.195.017-.239.026a12.26 12.26 0 0 0-.08 1.067l.558-.099c.291-.19.612-.333.955-.412l-.32-1.819-.293.052a.632.632 0 0 1 .037.206M9.077 22.066v2.174c0 .15.027.215.037.234h.002c.007 0 .021.002.043.002.078 0 .168-.03.27-.09v-2.218l-.122-.019a.643.643 0 0 1-.23-.083M12.024 24.57h.152v-2.295H12.024v2.295zM6.48 24.097v-1.414H6.01v.146c.152.412.308.833.471 1.268M36.338 39.189l.103 1.533 1.515-.687-1.027-1.026a13.34 13.34 0 0 1-.737-.783c.073.313.122.633.146.963M15.278 22.218a.642.642 0 0 1-.265.057h-.344v1.949a.98.98 0 0 0 .041.319.862.862 0 0 0 .157-.073.637.637 0 0 1 .515-.053c.042.013.08.037.117.06a14.204 14.204 0 0 1 .043-1.974v-.481a.864.864 0 0 1-.264.196M25.535 5.868a.74.74 0 0 0 .293-.383.794.794 0 0 0 .013-.459.731.731 0 0 0-.392-.488c-.2-.1-.477-.104-.828-.01l-1.5.399.418 1.568 1.348-.36c.286-.076.503-.165.648-.267"/>
        <path d="M13.52 10.999l3.474 1.5c.279.12.533.24.763.36-.145-.239-.28-.486-.407-.742l-1.7-3.4.452-.484 2.274 4.751-.454.487-4.88-1.959.479-.513zm6.915-5.587l.302.494-2.475 1.507.78 1.283 2.318-1.41.3.49-2.318 1.411.868 1.427 2.571-1.566.301.495-3.126 1.903-2.55-4.19 3.03-1.844zm4.02-1.402c.423-.112.755-.155.998-.129.242.027.458.13.646.31.19.182.319.402.388.663.09.336.057.649-.1.937-.156.289-.453.525-.891.709.187.035.334.08.44.135.229.12.458.283.69.492l1.167 1.07-.789.21-.89-.819a9.345 9.345 0 0 0-.626-.532 1.479 1.479 0 0 0-.402-.232.98.98 0 0 0-.32-.05 1.967 1.967 0 0 0-.355.07l-.727.194.56 2.105-.627.167-1.262-4.74 2.1-.56zm4.238-.612l.268 4.898-.648.035-.267-4.897.647-.036zm1.848-.042l3.282.414-.073.574-2.638-.333-.19 1.507 2.283.289-.073.574-2.283-.288-.28 2.21-.643-.081.615-4.866zm4.856.9l.618.197-1.493 4.672-.618-.197 1.493-4.673zm2.39.812l3.106 1.712-.28.507-2.536-1.399-.725 1.316 2.375 1.31-.277.504-2.376-1.31-.805 1.462 2.636 1.454-.28.507-3.204-1.767 2.367-4.296zm4.786 2.955l1.19 1.198c.27.27.458.493.566.669.152.245.238.497.258.758.027.337-.035.672-.185 1.002-.151.331-.382.65-.691.959a3.428 3.428 0 0 1-.794.605c-.266.142-.513.23-.743.267a1.77 1.77 0 0 1-.63-.003 1.817 1.817 0 0 1-.587-.242c-.2-.123-.405-.29-.614-.5l-1.248-1.255 3.478-3.458zM6.466 20.562a36.678 36.678 0 0 0 1.891-.196.647.647 0 0 1 .646.338.64.64 0 0 1 .371-.142 29.733 29.733 0 0 0 1.922-.195.646.646 0 0 1 .509.153.64.64 0 0 1 .076.083.637.637 0 0 1 .192-.12v-.053c0-.201.095-.391.256-.513l1.126-.847a.643.643 0 0 1 .667-.064l.186.09c.221.108.361.332.361.578v.769h.419c.152 0 .3.054.416.154.015.012.025.03.038.043V19.53a6.87 6.87 0 0 0-.096-.007.642.642 0 0 1-.604-.64v-.31c0-.316.23-.585.543-.634.377-.06.954-.165 1.499-.274 2.27-4.672 7.06-7.893 12.601-7.893 7.681 0 13.914 6.186 14 13.848a1.446 1.446 0 0 1 1.259 1.192c.022-.003.045-.006.06-.01.07-.507.101-1.133.101-1.931V20.74c0-.551-.005-.736-.063-.812-.028-.036-.065-.083-.453-.114a.642.642 0 0 1-.59-.64v-.338c0-.355.288-.642.642-.642h1.866c.187 0 .365.081.487.223l3.046 3.544v-.187c0-1.017-.05-1.573-.092-1.907a2.32 2.32 0 0 0-.44-.052.642.642 0 0 1-.61-.642v-.337c0-.355.288-.642.643-.642h1.518a19.78 19.78 0 0 0-.266-.955l1.778-.647-.713-1.961-1.777.647a21.877 21.877 0 0 0-.73-1.565l1.637-.946-1.042-1.808-1.634.944c-.31-.486-.637-.962-.983-1.422l1.437-1.206-1.34-1.6-1.43 1.2c-.39-.425-.799-.834-1.22-1.228l1.195-1.425-1.597-1.343-1.187 1.415c-.457-.354-.928-.69-1.413-1.008l.915-1.586-1.807-1.044-.905 1.57a21.96 21.96 0 0 0-1.571-.754l.613-1.684-1.96-.715-.607 1.668a21.876 21.876 0 0 0-1.685-.466l.306-1.733-2.055-.363-.302 1.714a22.177 22.177 0 0 0-1.746-.172V0h-2.087v1.701c-.591.021-1.177.065-1.756.132L26.636.179 24.58.542l.286 1.626c-.58.123-1.151.27-1.714.439l-.558-1.533-1.96.714.55 1.512c-.551.223-1.091.469-1.619.735l-.795-1.378L16.964 3.7l.785 1.36c-.504.317-.998.65-1.474 1.006L15.28 4.88l-1.598 1.342.982 1.17c-.443.402-.865.824-1.274 1.259l-1.162-.975-1.341 1.599 1.147.962c-.367.473-.716.96-1.045 1.462l-1.281-.74-1.043 1.808 1.265.731c-.279.53-.54 1.072-.777 1.627l-1.357-.494-.714 1.96 1.347.491a22.027 22.027 0 0 0-.472 1.745l-1.407-.249-.362 2.056.016.002a.639.639 0 0 1 .262-.074zM4.062 25.805h2.937v-.334c-.569-.071-.742-.115-1.113-1.128-.407-1.085-.88-2.367-1.33-3.633l-.706-1.994-.527.144-2.167 5.516C.781 25.343.641 25.393 0 25.471v.334h2.417v-.334l-.265-.03c-.496-.056-.515-.17-.358-.71.14-.465.28-.936.412-1.249h1.9c.162.393.366.955.505 1.311.181.462.126.58-.269.638l-.28.04v.334zm-.943-5.078h.03l.776 2.211H2.352l.767-2.211z"/>
        <path d="M10.07 22.076c0-.393-.052-.461-.33-.509l-.333-.052v-.312c.538-.027 1.47-.131 1.975-.2v3.645c0 .445.043.565.385.565h.333v.331c-.643.093-1.33.243-1.945.399l-.085-.074v-.687c-.202.149-.383.286-.62.43-.331.202-.601.315-.939.315-.895 0-1.389-.596-1.389-1.419v-2.432c0-.393-.052-.461-.33-.509l-.29-.052v-.312c.493-.027 1.373-.131 1.933-.2v3.237c0 .632.32.879.724.879.301 0 .6-.141.911-.411v-2.632M14.027 24.224c0 .823.406.977.6.977.17 0 .354-.056.558-.173l.148.321-.922.465c-.17.082-.331.113-.405.113-.83 0-1.29-.36-1.29-1.314v-2.98h-.687l-.076-.137.344-.41h.419v-.655l1.125-.848.186.09v1.412h1.06c.139.118.12.46-.074.548h-.986v2.59M17.497 21.646c.362-.358.904-.686 1.465-.686.975 0 1.514.611 1.514 1.622v2.175c0 .602.053.643.646.714v.334h-2.519v-.334c.519-.071.561-.112.561-.714V22.7c0-.663-.371-.945-.819-.945-.295 0-.607.108-.848.353v2.649c0 .602.051.643.498.714v.334h-2.582v-.334c.717-.071.771-.112.771-.714v-5.184c0-.634-.02-.65-.7-.69v-.31a44.253 44.253 0 0 0 2.013-.378v3.451M23.834 20.96c-1.205 0-2.535.903-2.535 2.604 0 1.148.827 2.363 2.48 2.363 1.235 0 2.471-.84 2.471-2.59 0-1.248-.924-2.377-2.416-2.377m-1.055 2.174c0-1.163.455-1.731.893-1.731.686 0 1.098.827 1.098 2.26 0 1.552-.482 1.819-.87 1.819-.69 0-1.12-1-1.12-2.348M28.546 24.757c0 .6.053.643.878.714v.334h-2.92v-.334c.674-.071.729-.115.729-.714v-2.38c0-.655-.02-.663-.71-.74v-.29a28.43 28.43 0 0 0 2.023-.387v1.066h.022c.136-.217.3-.474.5-.687.205-.217.442-.379.71-.379.408 0 .72.298.72.656 0 .355-.238.667-.508.761-.14.06-.243.02-.33-.043-.181-.145-.366-.226-.536-.226-.182 0-.398.081-.578.528v2.12M32.688 19.266a.769.769 0 0 1-.778.775.782.782 0 0 1-.78-.775c0-.437.363-.78.78-.78.435 0 .778.343.778.78m-1.345 3.111c0-.655-.02-.663-.707-.741v-.29c.631-.088 1.342-.231 2.02-.386v3.783c0 .613.054.657.736.728v.334h-2.787v-.334c.686-.071.738-.115.738-.728v-2.366M37.66 21.083l.095.155-2.468 4.111h.849c.738 0 1.026-.133 1.386-.744l.157-.267.386.144c-.192.533-.33.93-.494 1.323H33.7l-.107-.157 2.544-4.11h-.754c-.71 0-.9.163-1.145.692l-.153.329-.385-.144c.127-.407.296-1.087.396-1.556h.238c.054.158.17.224.578.224h2.748"/>
        <path d="M41.967 24.563c-.432.29-.765.415-1.16.415-.819 0-1.549-.555-1.549-1.757 1.067-.043 2.495-.142 2.644-.173.213-.041.245-.065.245-.468 0-.829-.742-1.616-1.672-1.616-1.308 0-2.465 1.151-2.465 2.699 0 1.202.833 2.264 2.281 2.264.374 0 1.214-.216 1.824-1.15l-.148-.214zm-2.662-1.826c.063-.729.462-1.285.857-1.285.408 0 .75.563.75.998 0 .21-.041.254-.2.254l-1.407.033zM42.493 25.087c0-.484.352-.84.812-.84.469 0 .823.356.823.84 0 .501-.354.84-.823.84-.46 0-.812-.339-.812-.84M51.05 25.883h-.652l-4.264-5.235h-.022v2.223c0 1.128.065 1.723.106 2.057.056.372.324.513 1.037.543v.334H44.59v-.334c.537-.02.795-.171.844-.543.049-.334.112-.929.112-2.057v-2.13c0-.684 0-.948-.195-1.203-.204-.261-.473-.329-.91-.365v-.337h1.865l4.154 4.832h.021v-1.894c0-1.126-.061-1.717-.106-2.055-.054-.378-.324-.51-1.035-.546v-.337h2.664v.337c-.54.02-.794.168-.848.546-.043.338-.106.929-.106 2.055v4.109"/>
        <path d="M55.37 24.563c-.432.29-.763.415-1.163.415-.814 0-1.543-.555-1.543-1.757 1.062-.043 2.49-.142 2.64-.173.214-.041.246-.065.246-.468 0-.829-.74-1.616-1.673-1.616-1.308 0-2.468 1.151-2.468 2.699 0 1.202.839 2.264 2.283 2.264.378 0 1.216-.216 1.826-1.15l-.147-.214zm-2.661-1.826c.062-.729.46-1.285.855-1.285.407 0 .75.563.75.998 0 .21-.039.254-.204.254l-1.401.033zM57.638 24.224c0 .823.406.977.602.977.168 0 .353-.056.555-.173l.15.321-.922.465c-.17.082-.328.113-.407.113-.824 0-1.293-.36-1.293-1.314v-2.98h-.681l-.076-.137.345-.41h.412v-.655l1.131-.848.184.09v1.412H58.7c.14.118.116.46-.074.548h-.987v2.59M58.813 20.13h.072c.047 0 .08-.013.097-.039a.139.139 0 0 0 .018-.135.122.122 0 0 0-.034-.038c-.014-.01-.04-.014-.076-.014h-.077v.225zm0 .346h-.105v-.652h.21c.05 0 .09.007.116.022a.163.163 0 0 1 .062.064c.014.028.023.06.023.091a.234.234 0 0 1-.03.11.22.22 0 0 1-.097.08c.021.014.046.045.073.094l.102.191h-.118l-.084-.16-.022-.042c-.024-.043-.04-.064-.053-.064h-.077v.266zm.101.136c.08 0 .157-.02.226-.06a.446.446 0 0 0 .232-.398.473.473 0 0 0-.06-.228.46.46 0 0 0-.793 0 .454.454 0 0 0-.06.229.453.453 0 0 0 .455.457zm0 .082a.533.533 0 0 1-.537-.539.537.537 0 0 1 1.004-.271.53.53 0 0 1-.002.544.532.532 0 0 1-.465.265z"/>
    </g>
</svg>
