<?xml version="1.0" encoding="UTF-8" standalone="no"?>
<svg width="20px" height="15px" viewBox="0 0 20 15" version="1.1" xmlns="http://www.w3.org/2000/svg" xmlns:xlink="http://www.w3.org/1999/xlink">
    <!-- Generator: Sketch 47.1 (45422) - http://www.bohemiancoding.com/sketch -->
    <title>email</title>
    <desc>Created with Sketch.</desc>
    <defs></defs>
    <g id="Page-1" stroke="none" stroke-width="1" fill="none" fill-rule="evenodd">
        <g id="Styleguide" transform="translate(-691.000000, -1251.000000)" fill="#8F8F8F">
            <g id="email" transform="translate(691.000000, 1251.000000)">
                <path d="M15.693375,11.267375 C15.6165,11.267375 15.539625,11.23925 15.479,11.182375 L11.88275,7.808625 C11.757125,7.691125 11.750875,7.493 11.869625,7.367375 C11.987125,7.2405 12.184625,7.234875 12.3115,7.353625 L15.90775,10.728 C16.033375,10.844875 16.039625,11.043625 15.920875,11.168625 C15.859625,11.23425 15.777125,11.267375 15.693375,11.267375" id="Fill-1"></path>
                <path d="M3.6886875,11.267375 C3.6055625,11.267375 3.5224375,11.23425 3.4605625,11.168625 C3.3424375,11.043625 3.3486875,10.844875 3.4743125,10.728 L7.0718125,7.353625 C7.1980625,7.236125 7.3961875,7.241125 7.5136875,7.367375 C7.6318125,7.493 7.6255625,7.691125 7.4999375,7.808625 L3.9024375,11.182375 C3.8424375,11.23925 3.7655625,11.267375 3.6886875,11.267375" id="Fill-3"></path>
                <path d="M1.5625,1.2499375 C1.045625,1.2499375 0.625,1.6705625 0.625,2.1874375 L0.625,12.8418125 C0.625,13.3593125 1.045625,13.7793125 1.5625,13.7793125 L17.82,13.7793125 C18.336875,13.7793125 18.7575,13.3593125 18.7575,12.8418125 L18.7575,2.1874375 C18.7575,1.6705625 18.336875,1.2499375 17.82,1.2499375 L1.5625,1.2499375 Z M17.82,14.4043125 L1.5625,14.4043125 C0.70125,14.4043125 0,13.7036875 0,12.8418125 L0,2.1874375 C0,1.3255625 0.70125,0.6249375 1.5625,0.6249375 L17.82,0.6249375 C18.68125,0.6249375 19.3825,1.3255625 19.3825,2.1874375 L19.3825,12.8418125 C19.3825,13.7036875 18.68125,14.4043125 17.82,14.4043125 L17.82,14.4043125 Z" id="Fill-5"></path>
                <path d="M9.6911875,9.08475 C9.2755625,9.08475 8.8599375,8.946625 8.5436875,8.671625 L0.5186875,1.670375 C0.3886875,1.557875 0.3749375,1.360375 0.4880625,1.22975 C0.6024375,1.09975 0.7993125,1.087875 0.9293125,1.199125 L8.9543125,8.199125 C9.3536875,8.547875 10.0286875,8.547875 10.4274375,8.199125 L18.4424375,1.210375 C18.5718125,1.09725 18.7686875,1.10975 18.8836875,1.240375 C18.9968125,1.371 18.9836875,1.5685 18.8536875,1.681625 L10.8386875,8.671 C10.5218125,8.946625 10.1068125,9.08475 9.6911875,9.08475" id="Fill-8"></path>
            </g>
        </g>
    </g>
</svg>