<?xml version="1.0" encoding="utf-8"?>
<!-- Generator: Adobe Illustrator 22.1.0, SVG Export Plug-In . SVG Version: 6.00 Build 0)  -->
<svg version="1.1" id="Layer_1" xmlns="http://www.w3.org/2000/svg" xmlns:xlink="http://www.w3.org/1999/xlink" x="0px" y="0px"
	 viewBox="0 0 48 48" style="enable-background:new 0 0 48 48;" xml:space="preserve">
<style type="text/css">
	.st0{fill:#00C579;}
</style>
<g id="Page-1_1_">
	<g id="Styleguide_1_" transform="translate(-1026.000000, -1036.000000)">
		<g id="noun_1206632_cc" transform="translate(1026.000000, 1036.000000)">
			<path id="Shape_7_" class="st0" d="M38.4,38.4l-3.9-9.8c0.5-0.6,1-1.1,1.4-1.8c0.5-0.8,1-1.6,1.3-2.4c0.4-0.9,0.7-1.8,0.8-2.7
				c0.2-0.9,0.3-1.9,0.3-2.9c0-1-0.1-1.9-0.3-2.9c-0.2-0.9-0.5-1.8-0.8-2.7c-0.3-0.6-1-0.9-1.6-0.7c-0.2,0.1-0.4,0.3-0.6,0.4
				c-0.2,0.3-0.3,0.8-0.1,1.1c0.3,0.7,0.5,1.5,0.7,2.2c0.2,0.8,0.2,1.6,0.2,2.4c0,0.8-0.1,1.6-0.2,2.4c-0.2,0.8-0.4,1.5-0.7,2.2
				c-0.3,0.7-0.7,1.4-1.1,2c-0.4,0.6-0.9,1.2-1.5,1.8c-0.5,0.5-1.1,1-1.8,1.4c-0.6,0.4-1.3,0.8-2,1.1c-0.7,0.3-1.5,0.5-2.2,0.7
				c-1.6,0.3-3.2,0.3-4.8,0c-0.8-0.2-1.5-0.4-2.2-0.7c-0.7-0.3-1.4-0.7-2-1.1c-0.6-0.4-1.2-0.9-1.8-1.4c-0.5-0.5-1-1.1-1.5-1.8
				c-0.4-0.6-0.8-1.3-1.1-2c-0.3-0.7-0.5-1.5-0.7-2.2c-0.2-0.8-0.2-1.6-0.2-2.4c0-0.8,0.1-1.6,0.2-2.4c0.2-0.8,0.4-1.5,0.7-2.2
				c0.3-0.7,0.7-1.4,1.1-2c0.4-0.6,0.9-1.2,1.5-1.8c0.5-0.5,1.1-1,1.8-1.4c0.6-0.4,1.3-0.8,2-1.1c0.7-0.3,1.5-0.5,2.2-0.7
				C22.4,7,23.2,6.9,24,6.9c0.4,0,0.8-0.2,1-0.5c0.1-0.2,0.2-0.4,0.2-0.7c0-0.7-0.6-1.2-1.2-1.2c-1,0-2,0.1-2.9,0.3
				c-0.9,0.2-1.8,0.5-2.7,0.8c-0.9,0.4-1.7,0.8-2.5,1.3c-0.8,0.5-1.5,1.1-2.1,1.7c-0.7,0.6-1.2,1.4-1.8,2.1c-0.5,0.8-1,1.6-1.3,2.4
				c-0.4,0.9-0.7,1.8-0.8,2.7c-0.2,0.9-0.3,1.9-0.3,2.9s0.1,1.9,0.3,2.9c0.2,0.9,0.5,1.8,0.8,2.7c0.4,0.8,0.8,1.7,1.3,2.4
				c0.5,0.8,1.1,1.5,1.8,2.1c0.7,0.6,1.4,1.2,2.1,1.7c0.8,0.5,1.6,1,2.5,1.3c0.9,0.4,1.8,0.6,2.7,0.8c0.3,0.1,0.5,0.1,0.8,0.1
				l-2.6,6.6l-1.8-2.9c-0.3-0.5-0.9-0.7-1.4-0.5L12.8,37l1.1-2.7c0.2-0.6-0.1-1.3-0.7-1.6c-0.6-0.2-1.4,0.1-1.6,0.7l-2,5
				c-0.2,0.4-0.1,0.9,0.2,1.3c0.3,0.3,0.8,0.5,1.3,0.3l4.8-1.3l2.6,4.2c0.2,0.4,0.6,0.6,1.1,0.6c0,0,0.1,0,0.1,0
				c0.5,0,0.9-0.3,1.1-0.8l3.8-9.6c0.8,0,1.6-0.1,2.4-0.3c0.9-0.2,1.8-0.5,2.7-0.8c0.9-0.4,1.7-0.8,2.5-1.3c0.2-0.1,0.3-0.2,0.5-0.3
				l2.6,6.7l-3.3-0.9c-0.5-0.2-1.1,0.1-1.4,0.5l-1.8,2.9l-1.2-3.1c-0.2-0.6-1-0.9-1.6-0.7c-0.6,0.2-1,0.9-0.7,1.6l2.2,5.4
				c0.2,0.4,0.6,0.7,1.1,0.8c0,0,0.1,0,0.1,0c0.4,0,0.8-0.2,1.1-0.6l2.6-4.2l4.8,1.3c0.5,0.1,0.9,0,1.3-0.3
				C38.5,39.3,38.6,38.8,38.4,38.4z"/>
			<path id="Shape_6_" class="st0" d="M30.1,8.3c0.1,0.1,0.3,0.1,0.4,0.2c0.1,0.1,0.3,0.2,0.4,0.2c0.1,0.1,0.3,0.2,0.4,0.3
				c0.1,0.1,0.3,0.2,0.4,0.3c0.2,0.1,0.5,0.2,0.7,0.2c0.3,0,0.6-0.1,0.8-0.3c0.4-0.4,0.3-1-0.1-1.3c-0.2-0.1-0.3-0.2-0.5-0.3
				c-0.2-0.1-0.3-0.2-0.5-0.3C32,7.1,31.8,7,31.6,6.9c-0.2-0.1-0.3-0.2-0.5-0.3c-0.5-0.3-1.2-0.1-1.5,0.4C29.3,7.5,29.5,8,30.1,8.3z
				"/>
			<path id="Oval" class="st0" d="M24,26.5c-4.1,0-7.5-3.4-7.5-7.5s3.4-7.5,7.5-7.5s7.5,3.4,7.5,7.5S28.1,26.5,24,26.5z M24,23.9
				c2.7,0,4.9-2.2,4.9-4.9s-2.2-4.9-4.9-4.9s-4.9,2.2-4.9,4.9S21.3,23.9,24,23.9z"/>
		</g>
	</g>
</g>
</svg>
