<?xml version="1.0" encoding="utf-8"?>
<!-- Generator: Adobe Illustrator 22.1.0, SVG Export Plug-In . SVG Version: 6.00 Build 0)  -->
<svg version="1.1" id="Layer_1" xmlns="http://www.w3.org/2000/svg" xmlns:xlink="http://www.w3.org/1999/xlink" x="0px" y="0px"
	 viewBox="0 0 48 48" style="enable-background:new 0 0 48 48;" xml:space="preserve">
<style type="text/css">
	.st0{fill:#00C579;}
</style>
<path class="st0" d="M26.2,17.2h-1.7L24,15.8c0-0.1-0.2-0.2-0.3-0.2s-0.3,0.1-0.3,0.2l-0.5,1.5h-1.7c-0.2,0-0.3,0.1-0.3,0.2
	c0,0.1,0,0.3,0.1,0.4l1.4,0.9l-0.5,1.5c0,0.1,0,0.3,0.1,0.4c0.1,0.1,0.3,0.1,0.4,0l1.4-0.9l1.4,0.9c0.1,0,0.1,0.1,0.2,0.1
	c0.1,0,0.2,0,0.2-0.1c0.1-0.1,0.2-0.2,0.1-0.4L25,18.8l1.4-0.9c0.1-0.1,0.2-0.2,0.1-0.4C26.5,17.3,26.4,17.2,26.2,17.2z M20.8,34.8
	l1.4,0.9l-0.5,1.5c0,0.1,0,0.3,0.1,0.4c0.1,0.1,0.3,0.1,0.4,0l1.4-0.9l1.4,0.9c0.1,0,0.1,0.1,0.2,0.1c0.1,0,0.2,0,0.2-0.1
	c0.1-0.1,0.2-0.2,0.1-0.4L25,35.7l1.4-0.9c0.1-0.1,0.2-0.2,0.1-0.4c0-0.1-0.2-0.2-0.3-0.2h-1.7L24,32.7c0-0.1-0.2-0.2-0.3-0.2
	s-0.3,0.1-0.3,0.2l-0.5,1.5h-1.7c-0.2,0-0.3,0.1-0.3,0.2C20.7,34.6,20.7,34.7,20.8,34.8z M14.4,23.9l-0.5,1.5h-1.7
	c-0.2,0-0.3,0.1-0.3,0.2c0,0.1,0,0.3,0.1,0.4l1.4,0.9l-0.5,1.5c0,0.1,0,0.3,0.1,0.4c0.1,0.1,0.3,0.1,0.4,0l1.4-0.9l1.4,0.9
	c0.1,0,0.1,0.1,0.2,0.1c0.1,0,0.2,0,0.2-0.1c0.1-0.1,0.2-0.2,0.1-0.4l-0.5-1.5l1.4-0.9c0.1-0.1,0.2-0.2,0.1-0.4
	c0-0.1-0.2-0.2-0.3-0.2h-1.7l-0.5-1.5c0-0.1-0.2-0.2-0.3-0.2C14.6,23.6,14.5,23.7,14.4,23.9z M35.4,25.6c0-0.1-0.2-0.2-0.3-0.2h-1.7
	l-0.5-1.5c0-0.1-0.2-0.2-0.3-0.2s-0.3,0.1-0.3,0.2l-0.5,1.5h-1.7c-0.2,0-0.3,0.1-0.3,0.2c0,0.1,0,0.3,0.1,0.4l1.4,0.9l-0.5,1.5
	c0,0.1,0,0.3,0.1,0.4c0.1,0,0.1,0.1,0.2,0.1c0.1,0,0.2,0,0.2-0.1l1.4-0.9l1.4,0.9c0.1,0.1,0.3,0.1,0.4,0c0.1-0.1,0.2-0.2,0.1-0.4
	l-0.5-1.5l1.4-0.9C35.4,25.9,35.5,25.7,35.4,25.6z M20.3,19.5h-1.7L18.1,18c0-0.1-0.2-0.2-0.3-0.2s-0.3,0.1-0.3,0.2l-0.5,1.5h-1.7
	c-0.2,0-0.3,0.1-0.3,0.2c0,0.1,0,0.3,0.1,0.4l1.4,0.9l-0.5,1.5c0,0.1,0,0.3,0.1,0.4s0.3,0.1,0.4,0l1.4-0.9l1.4,0.9
	c0.1,0,0.1,0.1,0.2,0.1s0.2,0,0.2-0.1c0.1-0.1,0.2-0.2,0.1-0.4L19.2,21l1.4-0.9c0.1-0.1,0.2-0.2,0.1-0.4
	C20.6,19.5,20.5,19.5,20.3,19.5z M31.4,19.5h-1.7L29.1,18c0-0.1-0.2-0.2-0.3-0.2c-0.2,0-0.3,0.1-0.3,0.2l-0.5,1.5h-1.7
	c-0.2,0-0.3,0.1-0.3,0.2c0,0.1,0,0.3,0.1,0.4l1.4,0.9l-0.5,1.5c0,0.1,0,0.3,0.1,0.4c0.1,0.1,0.3,0.1,0.4,0l1.4-0.9l1.4,0.9
	c0.1,0,0.1,0.1,0.2,0.1c0.1,0,0.2,0,0.2-0.1c0.1-0.1,0.2-0.2,0.1-0.4L30.2,21l1.4-0.9c0.1-0.1,0.2-0.2,0.1-0.4
	C31.7,19.5,31.5,19.5,31.4,19.5z M20.7,31.5c0-0.1-0.2-0.2-0.3-0.2h-1.7l-0.5-1.5c0-0.1-0.2-0.2-0.3-0.2s-0.3,0.1-0.3,0.2l-0.5,1.5
	h-1.7c-0.2,0-0.3,0.1-0.3,0.2c0,0.1,0,0.3,0.1,0.4l1.4,0.9l-0.5,1.5c0,0.1,0,0.3,0.1,0.4c0.1,0,0.1,0.1,0.2,0.1c0.1,0,0.2,0,0.2-0.1
	l1.4-0.9l1.4,0.9c0.1,0.1,0.3,0.1,0.4,0c0.1-0.1,0.2-0.2,0.1-0.4l-0.5-1.5l1.4-0.9C20.7,31.8,20.7,31.6,20.7,31.5z M31.7,31.5
	c0-0.1-0.2-0.2-0.3-0.2h-1.7l-0.5-1.5c0-0.1-0.2-0.2-0.3-0.2s-0.3,0.1-0.3,0.2l-0.5,1.5h-1.7c-0.2,0-0.3,0.1-0.3,0.2
	c0,0.1,0,0.3,0.1,0.4l1.4,0.9l-0.5,1.5c0,0.1,0,0.3,0.1,0.4c0.1,0,0.1,0.1,0.2,0.1c0.1,0,0.2,0,0.2-0.1l1.4-0.9l1.4,0.9
	c0.1,0.1,0.3,0.1,0.4,0c0.1-0.1,0.2-0.2,0.1-0.4l-0.5-1.5l1.4-0.9C31.7,31.8,31.8,31.6,31.7,31.5z M44.7,17.7L24.8,3
	c-0.5-0.4-1.2-0.4-1.6,0L3.3,17.7c-0.6,0.5-0.8,1.3-0.3,2c0.2,0.3,0.5,0.5,0.9,0.6c0.1,0,0.1,0,0.2,0c0.3,0,0.6-0.1,0.8-0.3L24,5.8
	L43.1,20c0.6,0.4,1.5,0.3,1.9-0.3C45.5,19,45.3,18.2,44.7,17.7z M38.8,19.6c-0.8,0-1.4,0.6-1.4,1.4v21.4H9.9V21.1
	c0-0.8-0.6-1.4-1.4-1.4c-0.8,0-1.4,0.6-1.4,1.4v22.8c0,0.8,0.6,1.4,1.4,1.4h30.3c0.8,0,1.4-0.6,1.4-1.4V21.1
	C40.1,20.3,39.5,19.6,38.8,19.6z"/>
</svg>
