<?xml version="1.0" encoding="utf-8"?>
<!-- Generator: Adobe Illustrator 22.1.0, SVG Export Plug-In . SVG Version: 6.00 Build 0)  -->
<svg version="1.1" id="Layer_1" xmlns="http://www.w3.org/2000/svg" xmlns:xlink="http://www.w3.org/1999/xlink" x="0px" y="0px"
	 viewBox="0 0 48 48" style="enable-background:new 0 0 48 48;" xml:space="preserve">
<style type="text/css">
	.st0{fill:#00C579;}
</style>
<g id="Page-1_3_">
	<g id="Styleguide_3_" transform="translate(-950.000000, -972.000000)">
		<g id="noun_1041517_cc-copy" transform="translate(950.000000, 972.000000)">
			<path id="Shape_8_" class="st0" d="M41,14.4c-0.4-0.6-1.1-0.8-1.8-0.5c-0.6,0.4-0.8,1.1-0.5,1.8c1.4,2.5,2.2,5.4,2.2,8.4
				c0,9.3-7.6,16.9-16.9,16.9c-3.3,0-6.4-1-9-2.6c1.6-10.9,13.5-20.2,13.6-20.3c0.6-0.4,0.7-1.2,0.2-1.8c-0.4-0.6-1.2-0.7-1.8-0.2
				c-0.4,0.3-6,4.7-10.2,11.2c-1.1-1.9-2.7-6.1,0.4-11.2c1.9-3.2,4.8-3.7,8.2-4.3c2.5-0.4,5.3-0.9,7.8-2.6c0.8,3.8,2,12.4-1.6,17.4
				c-1.8,2.5-4.7,3.9-8.6,4c-0.7,0-1.3,0.6-1.3,1.3c0,0.7,0.6,1.3,1.3,1.3c0,0,0,0,0,0c4.7-0.1,8.3-1.8,10.6-5
				c5.5-7.6,1.7-21.1,1.6-21.6c-0.1-0.4-0.5-0.8-0.9-0.9c-0.4-0.1-0.9,0-1.2,0.3c-0.2,0.2-0.4,0.4-0.7,0.6c-2.6-1.2-5.5-1.9-8.4-1.9
				C13.2,4.5,4.5,13.2,4.5,24S13.2,43.5,24,43.5c10.8,0,19.5-8.7,19.5-19.5C43.5,20.6,42.6,17.3,41,14.4z M7.1,24
				c0-9.3,7.6-16.9,16.9-16.9c1.9,0,3.8,0.3,5.5,0.9c-1.4,0.5-3,0.8-4.6,1.1c-3.7,0.6-7.5,1.3-10,5.6c-4.4,7.4-0.8,13.4,0.4,15
				c-1.2,2.2-2.1,4.5-2.7,6.9C9.3,33.5,7.1,29,7.1,24z"/>
		</g>
	</g>
</g>
</svg>
