<svg xmlns="http://www.w3.org/2000/svg" width="254" height="29" viewBox="0 0 254 29">
    <path fill="#FFF" fill-rule="evenodd" d="M189.161 13.732c0 5.87 3.645 10.188 9.056 10.188 4.417 0 9.165-2.88 9.165-9.08 0-5.87-3.644-10.189-9.055-10.189-4.196 0-9.166 2.658-9.166 9.081zm22.307.443c0 6.312-4.417 12.403-13.03 12.403-8.835 0-13.03-6.312-13.03-12.403 0-6.312 4.417-12.403 13.03-12.403 8.834 0 13.03 6.534 13.03 12.403zm-29.263-7.309c-.662-.443-3.203-2.215-6.626-2.215-4.417 0-8.834 2.99-8.834 8.749 0 4.983 2.87 10.188 9.717 10.188 4.638 0 6.957-1.55 7.951-2.547l-2.43 4.651c-2.096.664-3.643.775-5.852.775-10.16 0-13.36-6.976-13.36-12.292 0-6.534 4.636-12.625 13.14-12.625 2.097 0 3.312.333 4.416.443.664.111 1.105.333 1.878.333v4.54zm-23.521-4.651v3.987c-.663-.776-1.546-1.219-3.534-1.219l-4.638.111v6.866h4.97c.441 0 .772 0 1.215-.11v3.654c-.664-.665-1.437-.997-2.54-.997h-3.533v8.638c2.097.11 3.643.11 4.417.11 3.643 0 5.521-.774 7.177-2.103l-1.768 4.762h-14.796c1.545-1.108 1.545-2.548 1.545-3.323V5.76c0-.997 0-2.437-1.545-3.323h12.809v-.221h.22zM131.077 4.43v5.315h3.754c.442 0 .773 0 1.105-.11v3.322c-.442-.665-1.105-.775-1.767-.775h-3.203v8.637c0 3.212 2.099 3.655 3.534 3.655.442 0 .994 0 1.216-.11l-1.878 2.546c-.33 0-.663.11-1.105.11-3.202 0-5.08-2.214-5.08-5.425v-9.192h-2.429v-1.55c4.086-.443 4.418-4.762 4.307-6.313h1.546v-.11zm-16.895 4.762c.993-.111 1.877-.333 2.981-.333 5.521 0 6.184 3.655 6.184 5.87v6.644c0 1.883 1.104 2.436 2.43 2.436h.662l-1.546 2.215h-.442c-1.104 0-4.086 0-4.086-3.765v-5.205c-1.104.665-1.877.775-3.644 1.218-1.546.333-3.533.997-3.533 2.99 0 .776.331 2.88 3.533 2.88.994 0 1.878-.111 2.982-.443l-2.209 2.657c-.662.111-1.435.333-2.208.333-3.313 0-5.522-2.215-5.522-5.427 0-3.654 3.203-4.319 5.743-4.983 2.87-.664 4.638-.997 4.638-2.658 0-1.218-1.105-2.104-3.203-2.104-.662 0-2.87.11-4.969 1.218l2.209-3.543zM80.06 26.135c.993-.664 1.104-1.44 1.104-2.436V12.07c0-.997-.11-1.772-1.104-2.436h2.54c.662 0 1.214-.111 1.766-.443v2.768c1.436-2.436 3.534-2.658 5.08-2.658 1.435 0 4.086.111 5.521 3.212 1.546-2.658 3.976-3.212 5.853-3.212 5.742 0 6.184 4.43 6.184 6.866v7.974c0 .996.11 1.772 1.104 2.436h-5.521c.994-.664 1.104-1.44 1.104-2.436v-7.199c0-2.104-.442-5.094-3.975-5.094-3.976 0-4.086 3.323-4.086 4.762v7.31c0 .996.11 1.771 1.104 2.435h-5.521c.994-.664 1.104-1.44 1.104-2.436v-7.309c0-1.218-.11-4.762-3.975-4.762-4.086 0-4.086 3.655-4.086 4.098v8.084c0 .997.11 1.772 1.104 2.436h-5.19v-.332h-.11zM67.36 9.192c.994-.111 1.878-.333 2.982-.333 5.521 0 6.184 3.655 6.184 5.87v6.644c0 1.883 1.104 2.436 2.43 2.436h.662l-1.546 2.215h-.442c-1.104 0-4.086 0-4.086-3.765v-5.205c-1.104.665-1.877.775-3.644 1.218-1.546.333-3.533.997-3.533 2.99 0 .776.33 2.88 3.533 2.88.994 0 1.878-.111 2.982-.443l-2.209 2.657c-.662.111-1.435.333-2.208.333-3.313 0-5.522-2.215-5.522-5.427 0-3.654 3.203-4.319 5.743-4.983 2.87-.664 4.638-.997 4.638-2.658 0-1.218-1.105-2.104-3.203-2.104-.662 0-2.87.11-4.97 1.218l2.21-3.543zM44.502 26.135c.994-.664 1.104-1.44 1.104-2.436V12.07c0-.997-.11-1.772-1.104-2.436h2.54c.662 0 1.215-.111 1.767-.443v2.214c.994-1.55 3.313-2.436 5.19-2.436 3.313 0 6.184 1.55 6.184 5.426v9.413c0 .997.11 1.772 1.104 2.437h-5.521c.993-.665 1.104-1.44 1.104-2.437v-8.416c0-2.215-1.546-3.654-4.086-3.654-4.086 0-4.086 3.211-4.086 3.765v8.305c0 .997.11 1.772 1.105 2.437h-5.19v-.111h-.11zM31.803 9.192c.994-.111 1.877-.333 2.982-.333 5.52 0 6.183 3.655 6.183 5.87v6.644c0 1.883 1.105 2.436 2.43 2.436h.662l-1.546 2.215h-.441c-1.105 0-4.086 0-4.086-3.765v-5.205c-1.104.665-1.877.775-3.644 1.218-1.546.333-3.534.997-3.534 2.99 0 .776.331 2.88 3.534 2.88.994 0 1.877-.111 2.981-.443l-2.208 2.657c-.663.111-1.436.333-2.209.333-3.313 0-5.521-2.215-5.521-5.427 0-3.654 3.202-4.319 5.742-4.983 2.871-.664 4.638-.997 4.638-2.658 0-1.218-1.104-2.104-3.202-2.104-.663 0-2.871.11-4.97 1.218l2.209-3.543zM18.11 26.135c.994-.664 1.104-1.44 1.104-2.436V12.07c0-.997-.11-1.772-1.104-2.436h2.54c.662 0 1.215-.111 1.767-.443v2.768c.773-1.218 2.208-2.88 4.638-2.88.441 0 .773 0 1.104.112v3.211c-.442-.332-1.104-.443-1.877-.443-1.767 0-3.644.997-3.644 4.762v6.977c0 .775.11 1.772 1.435 2.436H18.11zm-18.11 0c1.546-1.107 1.546-2.215 1.546-3.322V5.759c0-.997 0-2.215-1.546-3.323h8.392c1.878 0 8.393 0 8.393 6.202 0 4.43-3.755 6.866-7.62 6.866-.993 0-2.098-.11-2.87-.443 2.65-.11 6.625-1.44 6.625-5.759 0-2.658-1.877-4.43-5.08-4.43-.994 0-1.877.111-2.87.333v17.054c0 1.107.11 2.99 2.097 3.987L0 26.135zm249.676-2.88c1.436-2.436 2.098-4.983 2.098-7.64 2.429 2.547 2.981 6.312 1.104 9.413-1.766 3.211-5.411 4.65-8.724 3.654 2.209-1.107 4.307-2.99 5.522-5.426zm-22.417 0c1.435 2.437 3.313 4.32 5.521 5.538-3.313.775-6.957-.665-8.722-3.655-1.768-3.211-1.216-6.976 1.104-9.413.11 2.437.772 5.094 2.097 7.53zm11.374-19.6c-2.65 0-5.411.775-7.62 2.104.994-3.323 3.976-5.759 7.62-5.759 3.645 0 6.625 2.436 7.62 5.759-2.43-1.33-4.97-2.105-7.62-2.105zm-6.846 9.302c-1.436 2.436-2.099 4.983-2.099 7.64-2.43-2.546-2.981-6.311-1.104-9.412 1.767-3.212 5.412-4.651 8.725-3.655-2.43 1.108-4.308 2.99-5.522 5.427zm13.582 0c1.435 2.436 2.098 4.983 2.098 7.64 2.43-2.546 2.982-6.311 1.104-9.412-1.767-3.212-5.41-4.651-8.723-3.655 2.208 1.108 4.086 2.99 5.52 5.427zm-6.736 11.517c-2.65 0-5.411-.775-7.62-2.104.994 3.322 3.976 5.758 7.62 5.758 3.645 0 6.625-2.436 7.62-5.758-2.43 1.329-4.97 2.104-7.62 2.104zm0-10.3c-1.436 0-2.54 1.108-2.54 2.548s1.104 2.547 2.54 2.547 2.54-1.107 2.54-2.547c0-1.44-1.215-2.547-2.54-2.547zm0-2.657c2.87 0 5.19 2.436 5.19 5.205s-2.43 5.205-5.19 5.205c-2.871 0-5.19-2.436-5.19-5.205s2.319-5.205 5.19-5.205z"/>
</svg>
