<svg xmlns="http://www.w3.org/2000/svg" width="41" height="32" viewBox="0 0 41 32">
    <g fill="#C9C9C9" fill-rule="evenodd">
        <path d="M8.512 30.139c0-.605.396-1.1 1.043-1.1.619 0 1.036.474 1.036 1.1 0 .625-.417 1.1-1.036 1.1-.647 0-1.043-.496-1.043-1.1zm2.784 0V28.42h-.748v.417c-.238-.309-.597-.503-1.086-.503-.964 0-1.72.755-1.72 1.805 0 1.05.756 1.804 1.72 1.804.489 0 .848-.194 1.086-.503v.417h.748V30.14zm25.258 0c0-.605.396-1.1 1.043-1.1.618 0 1.036.474 1.036 1.1 0 .625-.418 1.1-1.036 1.1-.647 0-1.043-.496-1.043-1.1zm2.783 0v-3.1h-.748v1.798c-.237-.309-.597-.503-1.086-.503-.963 0-1.718.755-1.718 1.805 0 1.05.755 1.804 1.718 1.804.49 0 .849-.194 1.086-.503v.417h.748V30.14zm-18.764-1.136c.482 0 .792.302.87.834H19.66c.079-.497.381-.834.913-.834zm.015-.669c-1.007 0-1.712.733-1.712 1.805 0 1.093.733 1.804 1.762 1.804.518 0 .993-.129 1.41-.481l-.367-.554c-.288.23-.655.36-1 .36-.482 0-.92-.223-1.028-.842h2.553c.007-.093.015-.187.015-.287-.008-1.072-.67-1.805-1.633-1.805zm9.025 1.805c0-.605.396-1.1 1.044-1.1.618 0 1.035.474 1.035 1.1 0 .625-.417 1.1-1.035 1.1-.648 0-1.044-.496-1.044-1.1zm2.784 0V28.42h-.748v.417c-.237-.309-.597-.503-1.086-.503-.964 0-1.719.755-1.719 1.805 0 1.05.755 1.804 1.719 1.804.49 0 .849-.194 1.086-.503v.417h.748V30.14zm-7.005 0c0 1.042.727 1.804 1.834 1.804.518 0 .863-.115 1.237-.41l-.36-.603a1.51 1.51 0 0 1-.898.309c-.597-.007-1.036-.439-1.036-1.1 0-.662.439-1.093 1.036-1.1.323 0 .618.107.898.309l.36-.604c-.374-.295-.72-.41-1.237-.41-1.107 0-1.834.762-1.834 1.805zm9.637-1.805c-.431 0-.712.201-.906.503v-.417h-.74v3.437h.747V29.93c0-.568.245-.884.734-.884.151 0 .309.021.468.086l.23-.705a1.604 1.604 0 0 0-.533-.093zm-20.036.36c-.36-.238-.856-.36-1.403-.36-.87 0-1.431.417-1.431 1.1 0 .561.417.906 1.186 1.014l.353.05c.41.058.604.165.604.36 0 .266-.274.417-.784.417-.518 0-.892-.166-1.144-.36l-.352.583c.41.301.928.445 1.489.445.992 0 1.568-.467 1.568-1.121 0-.604-.453-.92-1.201-1.029l-.353-.05c-.323-.043-.582-.107-.582-.338 0-.251.244-.402.654-.402.439 0 .863.165 1.072.295l.324-.605zm9.644-.36c-.432 0-.712.201-.906.503v-.417h-.741v3.437h.748V29.93c0-.568.244-.884.734-.884.15 0 .309.021.467.086l.23-.705a1.608 1.608 0 0 0-.532-.093zm-6.38.086h-1.222v-1.042h-.755v1.042h-.698v.683h.698v1.568c0 .798.31 1.272 1.194 1.272.323 0 .697-.1.935-.266l-.216-.64a1.38 1.38 0 0 1-.662.195c-.374 0-.496-.23-.496-.576v-1.553h1.223v-.683zM7.082 31.857V29.7c0-.812-.517-1.359-1.352-1.366-.439-.007-.892.13-1.208.611-.238-.38-.611-.611-1.136-.611-.367 0-.727.108-1.007.51v-.424H1.63v3.437h.755v-1.905c0-.597.33-.914.841-.914.497 0 .748.324.748.906v1.913h.755v-1.905c0-.597.346-.914.842-.914.51 0 .755.324.755.906v1.913h.755zM28.41 0c-2.587 0-5.038.776-7.13 2.25a13.405 13.405 0 0 1 4.613 10.154c0 3.927-1.673 7.59-4.612 10.155a12.274 12.274 0 0 0 7.129 2.25c6.84 0 12.407-5.565 12.407-12.405C40.817 5.564 35.25 0 28.41 0"/>
        <path d="M16.003 12.404c0 3.683 1.602 7.11 4.405 9.475a12.332 12.332 0 0 0 4.406-9.475c0-3.682-1.603-7.109-4.406-9.474a12.332 12.332 0 0 0-4.405 9.474"/>
        <path d="M14.924 12.404c0-3.926 1.672-7.588 4.612-10.154A12.273 12.273 0 0 0 12.406 0C5.567 0 0 5.565 0 12.404c0 6.84 5.566 12.405 12.407 12.405 2.586 0 5.037-.776 7.13-2.25a13.405 13.405 0 0 1-4.613-10.155"/>
    </g>
</svg>
