<svg xmlns="http://www.w3.org/2000/svg" width="51" height="15" viewBox="0 0 51 15">
    <g fill="none" fill-rule="nonzero">
        <path fill="#8F8F8F" d="M6.46.919H2.544a.546.546 0 0 0-.538.465L.422 11.567a.33.33 0 0 0 .323.382h1.87a.546.546 0 0 0 .537-.466l.427-2.746a.546.546 0 0 1 .538-.467h1.24c2.579 0 4.067-1.265 4.456-3.774.175-1.097.008-1.96-.5-2.563C8.758 1.269 7.77.919 6.46.919zm.451 3.719c-.214 1.425-1.287 1.425-2.326 1.425h-.59l.414-2.661a.328.328 0 0 1 .322-.28h.271c.707 0 1.375 0 1.72.41.205.243.268.605.19 1.106zM18.165 4.592H16.29a.328.328 0 0 0-.323.28l-.083.531-.13-.193c-.407-.597-1.312-.797-2.216-.797-2.072 0-3.842 1.592-4.186 3.824-.18 1.114.075 2.179.698 2.921.572.683 1.39.968 2.362.968 1.67 0 2.596-1.089 2.596-1.089l-.084.528a.33.33 0 0 0 .322.384h1.689a.546.546 0 0 0 .538-.467l1.013-6.508a.328.328 0 0 0-.321-.382zM15.55 8.293c-.181 1.086-1.031 1.816-2.116 1.816-.544 0-.98-.177-1.259-.513-.277-.333-.382-.808-.294-1.336.169-1.077 1.033-1.83 2.101-1.83.533 0 .966.18 1.25.518.286.342.4.819.318 1.345zM28.152 4.592h-1.885c-.18 0-.348.09-.45.242l-2.6 3.882-1.1-3.73a.547.547 0 0 0-.523-.394h-1.852a.33.33 0 0 0-.31.438l2.076 6.177L19.557 14a.331.331 0 0 0 .266.523h1.882a.54.54 0 0 0 .447-.237l6.268-9.174a.331.331 0 0 0-.268-.52z"/>
        <path fill="#C9C9C9" d="M34.39.919h-3.916a.546.546 0 0 0-.537.465l-1.584 10.183c-.031.201.122.382.322.382h2.01a.382.382 0 0 0 .375-.326l.45-2.886a.546.546 0 0 1 .537-.467h1.24c2.58 0 4.067-1.265 4.457-3.774.175-1.097.006-1.96-.5-2.563C36.688 1.269 35.7.919 34.39.919zm.452 3.719c-.213 1.425-1.287 1.425-2.325 1.425h-.59l.414-2.661c.025-.161.161-.28.322-.28h.27c.708 0 1.375 0 1.72.41.205.243.268.605.19 1.106zM46.095 4.592h-1.874a.326.326 0 0 0-.322.28l-.083.531-.131-.193c-.406-.597-1.31-.797-2.214-.797-2.073 0-3.842 1.592-4.187 3.824-.178 1.114.075 2.179.698 2.921.573.683 1.39.968 2.362.968 1.67 0 2.596-1.089 2.596-1.089l-.084.528a.33.33 0 0 0 .323.384h1.689a.546.546 0 0 0 .537-.467l1.014-6.508a.33.33 0 0 0-.324-.382zm-2.614 3.701c-.18 1.086-1.03 1.816-2.115 1.816-.544 0-.98-.177-1.26-.513-.276-.333-.38-.808-.294-1.336.17-1.077 1.034-1.83 2.102-1.83.532 0 .965.18 1.25.518.287.342.4.819.317 1.345zM48.306 1.198l-1.607 10.37c-.032.2.122.381.322.381h1.615a.546.546 0 0 0 .538-.466l1.585-10.182a.33.33 0 0 0-.322-.383h-1.81a.329.329 0 0 0-.321.28z"/>
    </g>
</svg>
