<?xml version="1.0" encoding="UTF-8" standalone="no"?>
<svg width="21px" height="21px" viewBox="0 0 21 21" version="1.1" xmlns="http://www.w3.org/2000/svg" xmlns:xlink="http://www.w3.org/1999/xlink">
    <!-- Generator: Sketch 47.1 (45422) - http://www.bohemiancoding.com/sketch -->
    <title>phone</title>
    <desc>Created with Sketch.</desc>
    <defs></defs>
    <g id="Page-1" stroke="none" stroke-width="1" fill="none" fill-rule="evenodd">
        <g id="Styleguide" transform="translate(-647.000000, -1249.000000)" fill="#8F8F8F">
            <g id="phone" transform="translate(647.000000, 1249.000000)">
                <path d="M14.907795,20.3 L6.091295,20.3 C5.627195,20.3 5.249545,19.92235 5.249545,19.45825 L5.249545,16.8 L15.749545,16.8 L15.749545,19.45825 C15.749545,19.92235 15.371895,20.3 14.907795,20.3 L14.907795,20.3 Z M6.091295,0.7 L14.907445,0.7 C15.371895,0.7 15.749545,1.07765 15.749545,1.54175 L15.749545,2.1 L5.249545,2.1 L5.249545,1.54175 C5.249545,1.07765 5.627195,0.7 6.091295,0.7 L6.091295,0.7 Z M5.249545,16.1 L15.749545,16.1 L15.749545,2.8 L5.249545,2.8 L5.249545,16.1 Z M14.907795,0 L6.091295,0 C5.241495,0 4.549545,0.69195 4.549545,1.54175 L4.549545,19.4579 C4.549545,20.30805 5.241495,21 6.091295,21 L14.907445,21 C15.757945,21 16.449545,20.30805 16.449545,19.45825 L16.449545,1.54175 C16.449545,0.69195 15.757945,0 14.907795,0 L14.907795,0 Z" id="Fill-1"></path>
                <path d="M10.49965,19.25 C10.1136,19.25 9.79965,18.93605 9.79965,18.55 C9.79965,18.16395 10.1136,17.85 10.49965,17.85 C10.8857,17.85 11.19965,18.16395 11.19965,18.55 C11.19965,18.93605 10.8857,19.25 10.49965,19.25 M10.49965,17.15 C9.72755,17.15 9.09965,17.7779 9.09965,18.55 C9.09965,19.3221 9.72755,19.95 10.49965,19.95 C11.27175,19.95 11.89965,19.3221 11.89965,18.55 C11.89965,17.7779 11.27175,17.15 10.49965,17.15" id="Fill-3"></path>
                <path d="M9.09965,1.75 L10.49965,1.75 C10.6932,1.75 10.84965,1.59355 10.84965,1.4 C10.84965,1.20645 10.6932,1.05 10.49965,1.05 L9.09965,1.05 C8.9061,1.05 8.74965,1.20645 8.74965,1.4 C8.74965,1.59355 8.9061,1.75 9.09965,1.75" id="Fill-5"></path>
                <path d="M11.54965,1.75 L11.89965,1.75 C12.0932,1.75 12.24965,1.59355 12.24965,1.4 C12.24965,1.20645 12.0932,1.05 11.89965,1.05 L11.54965,1.05 C11.3561,1.05 11.19965,1.20645 11.19965,1.4 C11.19965,1.59355 11.3561,1.75 11.54965,1.75" id="Fill-7"></path>
                <path d="M19.813955,1.59908 C19.676755,1.46223 19.455905,1.46223 19.319055,1.59908 C19.181855,1.73593 19.181855,1.95713 19.319055,2.09398 C20.626305,3.40158 20.626305,5.52923 19.319055,6.83718 C19.181855,6.97403 19.181855,7.19523 19.319055,7.33208 C19.386955,7.40033 19.476905,7.43463 19.566505,7.43463 C19.656105,7.43463 19.745705,7.40033 19.813955,7.33208 C21.394555,5.75183 21.394555,3.17968 19.813955,1.59908" id="Fill-9"></path>
                <path d="M18.34014,2.39582 C18.20294,2.25897 17.98209,2.25897 17.84524,2.39582 C17.70804,2.53267 17.70804,2.75387 17.84524,2.89072 C18.27784,3.32367 18.51654,3.90047 18.51654,4.51437 C18.51654,5.12827 18.27784,5.70472 17.84524,6.13767 C17.70804,6.27452 17.70804,6.49572 17.84524,6.63257 C17.91314,6.70082 18.00309,6.73512 18.09269,6.73512 C18.18229,6.73512 18.27189,6.70082 18.34014,6.63257 C18.90504,6.06767 19.21654,5.31517 19.21654,4.51437 C19.21654,3.71357 18.90539,2.96072 18.34014,2.39582" id="Fill-12"></path>
                <path d="M1.68028,2.094015 C1.81713,1.957165 1.81713,1.735965 1.68028,1.599115 C1.54343,1.462265 1.32223,1.462265 1.18538,1.599115 C-0.39522,3.179715 -0.39522,5.751515 1.18538,7.332115 C1.25363,7.400365 1.34323,7.434665 1.43283,7.434665 C1.52243,7.434665 1.61203,7.400365 1.68028,7.332115 C1.81713,7.195265 1.81713,6.974065 1.68028,6.837215 C0.37233,5.529615 0.37233,3.401965 1.68028,2.094015" id="Fill-14"></path>
                <path d="M3.15427,2.29908 C3.01742,2.16223 2.79622,2.16223 2.65937,2.29908 C2.09412,2.86398 1.78297,3.61648 1.78297,4.41728 C1.78297,5.21808 2.09412,5.97058 2.65937,6.53583 C2.72762,6.60408 2.81722,6.63838 2.90682,6.63838 C2.99642,6.63838 3.08602,6.60408 3.15427,6.53583 C3.29112,6.39898 3.29112,6.17778 3.15427,6.04093 C2.72132,5.60798 2.48297,5.03118 2.48297,4.41728 C2.48297,3.80338 2.72097,3.22693 3.15427,2.79398 C3.29077,2.65748 3.29077,2.43593 3.15427,2.29908" id="Fill-17"></path>
            </g>
        </g>
    </g>
</svg>