<svg xmlns="http://www.w3.org/2000/svg" xmlns:xlink="http://www.w3.org/1999/xlink" width="113" height="19" viewBox="0 0 113 19">
    <defs>
        <path id="a" d="M6.4 9H.196V.464H6.4V9z"/>
        <path id="c" d="M7.004 9H.7V.464h6.304V9z"/>
    </defs>
    <g fill="none" fill-rule="evenodd">
        <path fill="#444445" d="M103.1 8.9c-.9 0-1.7.7-1.7 1.7 0 .9.7 1.7 1.7 1.7.9 0 1.7-.7 1.7-1.7s-.8-1.7-1.7-1.7m0-1.7c1.8 0 3.3 1.5 3.3 3.3 0 1.8-1.5 3.3-3.3 3.3-1.8 0-3.3-1.5-3.3-3.3 0-1.8 1.5-3.3 3.3-3.3M103.1 15.5c-1.8 0-3.4-.5-4.8-1.3.6 2.1 2.5 3.7 4.8 3.7s4.2-1.5 4.8-3.7c-1.4.9-3 1.3-4.8 1.3M107.5 8.1c.9 1.5 1.3 3.2 1.3 4.8 1.5-1.6 1.9-4 .7-6S106 4 103.9 4.5c1.5.9 2.7 2.1 3.6 3.6M98.7 8.1c-.9 1.5-1.3 3.2-1.3 4.8-1.5-1.6-1.9-4-.7-6s3.5-2.9 5.6-2.4c-1.5.9-2.7 2.1-3.6 3.6M103.1 2.3c-1.8 0-3.4.5-4.8 1.3.6-2.1 2.5-3.6 4.8-3.6s4.2 1.5 4.8 3.6c-1.4-.9-3-1.3-4.8-1.3"/>
        <g transform="translate(93 9.436)">
            <mask id="b" fill="#fff">
                <use xlink:href="#a"/>
            </mask>
            <path fill="#444445" d="M2.9 5.264c.9 1.5 2.1 2.7 3.5 3.601-2.1.5-4.4-.4-5.5-2.4-1.2-2-.8-4.4.7-6 0 1.6.4 3.3 1.3 4.8" mask="url(#b)"/>
        </g>
        <g transform="translate(106 9.436)">
            <mask id="d" fill="#fff">
                <use xlink:href="#c"/>
            </mask>
            <path fill="#444445" d="M4.3 5.264c.9-1.5 1.3-3.2 1.3-4.8 1.5 1.6 1.9 4 .7 6S2.8 9.365.7 8.865a10.344 10.344 0 0 0 3.6-3.6" mask="url(#d)"/>
        </g>
        <path fill="#444445" d="M0 16.8c.3-.2.5-.5.7-.7.2-.3.3-.5.3-.7V2.9c0-.2-.1-.4-.3-.7-.2-.3-.4-.5-.7-.7h5.4c3.6 0 5.4 1.3 5.4 4 0 1.4-.5 2.4-1.5 3.2-1 .8-2.1 1.2-3.5 1.2-.6 0-1.2-.1-1.9-.3.5 0 1-.1 1.4-.2.5-.1.9-.3 1.4-.6.5-.3.8-.6 1.1-1.1.4-.5.5-1.1.5-1.8 0-.9-.3-1.6-.9-2.1-.5-.5-1.3-.7-2.3-.7-.6 0-1.2.1-1.8.2v10.9c0 1.3.5 2.1 1.4 2.5H0v.1zM11.9 16.8c.5-.3.8-.9.8-1.5V7.7c0-.7-.3-1.2-.8-1.5h1.6c.4 0 .8-.1 1.1-.4v1.7c.8-1.2 1.7-1.8 3-1.8.3 0 .5 0 .8.1v2.1c-.3-.2-.7-.4-1.2-.4-.7 0-1.2.2-1.7.7-.5.5-.7 1.3-.7 2.4v4.5c0 .7.3 1.2.9 1.5h-3.8v.2zM18.5 13.6c0-.4.1-.8.3-1.2.2-.4.4-.6.6-.8.2-.2.5-.4.9-.6.4-.2.7-.3.9-.3.2 0 .5-.1.9-.2 1.4-.3 2.2-.5 2.5-.7.4-.3.6-.6.6-1s-.2-.8-.5-1c-.3-.2-.8-.4-1.5-.4-1.2 0-2.2.3-3.2.8l1.4-2.3c.7-.1 1.4-.2 2-.2.7 0 1.3.1 1.8.3.5.2.9.4 1.2.6.2.3.4.6.6 1 .2.4.3.7.3 1 0 .3.1.6.1 1v4.2c0 .6.1 1 .4 1.2.3.2.7.3 1.2.4h.4l-1.1 1.5H28c-1.8 0-2.7-.8-2.7-2.4v-3.6c-.1.1-.3.1-.4.2-.1.1-.3.1-.5.2s-.3.1-.4.1c-.1 0-.3.1-.5.1-.3.1-.4.1-.5.1-.4.1-.8.2-1.1.3-.3.1-.5.3-.8.6-.3.3-.4.6-.4 1 0 .2 0 .3.1.5 0 .2.1.4.3.6.1.2.4.4.7.5.3.1.7.2 1.2.2.6 0 1.3-.1 1.9-.3l-1.4 1.9c-.4.1-.9.2-1.4.2-1 0-1.9-.3-2.6-1-.6-.6-1-1.5-1-2.5M29.5 16.8c.5-.3.8-.9.8-1.5V7.7c0-.7-.3-1.2-.8-1.5h1.7c.4 0 .8-.1 1.2-.4v1.5c.3-.5.7-.9 1.4-1.1.7-.3 1.3-.4 2-.4 1.2 0 2.1.3 2.9.9.8.6 1.2 1.4 1.2 2.6v6c0 .7.3 1.2.8 1.5H37c.5-.3.8-.9.8-1.5V9.8c0-.7-.2-1.3-.7-1.7-.5-.4-1.1-.6-1.9-.6-1.8 0-2.7.8-2.7 2.5v5.3c0 .7.2 1.2.8 1.5h-3.8zM41.5 13.6c0-.4.1-.8.3-1.2.2-.4.4-.6.6-.8.2-.2.5-.4.9-.6.4-.2.7-.3.9-.3.2 0 .5-.1.9-.2 1.4-.3 2.2-.5 2.5-.7.4-.3.6-.6.6-1s-.2-.8-.5-1c-.3-.2-.8-.4-1.5-.4-1.2 0-2.2.3-3.2.8l1.3-2.3c.7-.1 1.4-.2 2-.2.7 0 1.3.1 1.8.3.5.2.9.4 1.2.6.3.3.5.6.7 1 .2.4.3.7.3 1 0 .3.1.6.1 1v4.2c0 .6.1 1 .4 1.2.3.2.7.3 1.2.4h.4l-1.1 1.5H51c-1.8 0-2.7-.8-2.7-2.4v-3.6c-.1.1-.3.1-.4.2-.1.1-.3.1-.5.2s-.3.1-.4.1c-.1 0-.3.1-.5.1-.3.1-.4.1-.5.1-.4.1-.8.2-1.1.3-.3.1-.5.3-.8.6-.3.3-.4.6-.4 1 0 .2 0 .3.1.5 0 .2.1.4.3.6.1.2.4.4.7.5.3.1.7.2 1.2.2.6 0 1.3-.1 1.9-.3l-1.5 1.9c-.4.1-.9.2-1.4.2-1 0-1.9-.3-2.6-1-.6-.6-.9-1.5-.9-2.5M52.5 16.8c.5-.3.8-.9.8-1.5V7.7c0-.7-.3-1.2-.8-1.5h1.6c.4 0 .8-.1 1.2-.4v1.7c.7-1.2 1.8-1.8 3.3-1.8 1.7 0 3 .7 3.6 2.1.8-1.4 2.1-2.1 3.7-2.1 2.7 0 4 1.5 4 4.4v5.1c0 .7.3 1.2.8 1.5h-3.6c.5-.3.8-.9.8-1.5v-4.6c0-2.2-.8-3.3-2.5-3.3-1.8 0-2.7 1-2.7 3.1v4.7c0 .7.3 1.2.8 1.5h-3.6c.5-.3.8-.9.8-1.5v-4.7c0-2.1-.9-3.1-2.6-3.1-.4 0-.8.1-1.1.2-.3.1-.6.3-.8.5-.2.2-.3.4-.4.6-.1.2-.2.4-.2.6 0 .2-.1.4-.1.5v5.5c0 .7.2 1.2.8 1.5h-3.8v.1zM71.6 13.6c0-.4.1-.8.3-1.2.2-.4.4-.6.6-.8.2-.2.5-.4.9-.6.4-.2.7-.3.9-.3.2 0 .5-.1.9-.2 1.4-.3 2.2-.5 2.5-.7.4-.3.6-.6.6-1s-.2-.8-.5-1c-.3-.2-.8-.4-1.5-.4-1.2 0-2.2.3-3.2.8l1.4-2.3c.7-.1 1.4-.2 2-.2.7 0 1.3.1 1.8.3.5.2.9.4 1.2.6.2.3.5.6.6 1 .2.4.3.7.3 1 0 .3.1.6.1 1v4.2c0 .6.1 1 .4 1.2.3.2.7.3 1.2.4h.4l-1.1 1.5h-.3c-1.8 0-2.7-.8-2.7-2.4v-3.6c-.1.1-.3.1-.4.2-.1.1-.3.1-.5.2s-.3.1-.4.1c-.1 0-.3.1-.5.1-.3.1-.4.1-.5.1-.4.1-.8.2-1.1.3-.3.1-.5.3-.8.6-.3.3-.4.6-.4 1 0 .2 0 .3.1.5 0 .2.1.4.3.6.1.2.4.4.7.5.3.1.7.2 1.2.2.6 0 1.3-.1 1.9-.3l-1.4 1.9c-.4.1-.9.2-1.4.2-1 0-1.9-.3-2.6-1-.6-.6-1-1.5-1-2.5M81.9 7.6v-.8c.6-.1 1.2-.3 1.6-.6.4-.3.7-.7.9-1.2.2-.5.3-.9.3-1.3V2.6h.8v3.5H88c.2 0 .5 0 .7-.1v2.1c-.2-.3-.6-.5-1.1-.5h-2v5.6c0 1.6.8 2.4 2.3 2.4.3 0 .6 0 .9-.1L87.5 17c-.2 0-.5.1-.7.1-1 0-1.8-.3-2.4-1-.6-.6-.9-1.5-.9-2.5v-6h-1.6z"/>
    </g>
</svg>
