<?xml version="1.0" encoding="utf-8"?>
<!-- Generator: Adobe Illustrator 22.1.0, SVG Export Plug-In . SVG Version: 6.00 Build 0)  -->
<svg version="1.1" id="Layer_1" xmlns="http://www.w3.org/2000/svg" xmlns:xlink="http://www.w3.org/1999/xlink" x="0px" y="0px"
	 viewBox="0 0 48 48" style="enable-background:new 0 0 48 48;" xml:space="preserve">
<style type="text/css">
	.st0{fill:#00C579;}
</style>
<g id="Page-1_5_">
	<g id="Styleguide_5_" transform="translate(-1315.000000, -980.000000)">
		<g id="Group-10" transform="translate(1315.000000, 980.000000)">
			<g id="Group-5">
				<path id="Shape_12_" class="st0" d="M40.4,10.9c-5.4-1.5-10.9-3.9-15.8-6.8C24.3,4,24,4,23.7,4.1c-5,3-10.2,5.2-15.8,6.8
					c-0.4,0.1-0.6,0.4-0.6,0.8v8.6c0,8.9,4,14.7,7.4,18.1c3.6,3.6,7.9,5.6,9.4,5.6c1.5,0,5.8-2,9.4-5.6C37,35,41,29.2,41,20.3v-8.6
					C41,11.3,40.7,11,40.4,10.9z M38.7,20.5c0,7.9-3.6,13.2-6.6,16.2c-3.4,3.4-7.1,4.9-7.9,4.9c-0.8,0-4.5-1.5-7.9-4.9
					c-3-3-6.6-8.2-6.6-16.2v-7.6c5.1-1.5,9.9-3.5,14.5-6.3c4.5,2.7,9.5,4.8,14.5,6.3V20.5z"/>
				<path id="Shape_11_" class="st0" d="M19.7,12.2c-0.2-0.6-0.9-0.9-1.5-0.7c-2.1,0.9-4.2,1.7-6.4,2.4C11.3,14,11,14.5,11,15v4.8
					c0,0.7,0.5,1.2,1.2,1.2s1.2-0.6,1.2-1.2v-3.9c1.9-0.7,3.8-1.4,5.7-2.2C19.6,13.5,19.9,12.8,19.7,12.2z"/>
				<path id="Shape_10_" class="st0" d="M22.7,12.9c0.2,0,0.4,0,0.6-0.1l0,0c0.7-0.3,1.1-1.2,0.7-1.9c-0.3-0.7-1.2-1.1-1.9-0.8l0,0
					c-0.7,0.3-1.1,1.2-0.7,1.9C21.6,12.6,22.1,12.9,22.7,12.9z"/>
				<path id="Shape_9_" class="st0" d="M20.5,24.4c-0.3-0.3-0.8-0.5-1.2-0.5s-0.9,0.2-1.2,0.5c-0.7,0.7-0.7,1.8,0,2.5l3.1,3.3
					c0.3,0.3,0.8,0.5,1.2,0.5c0.5,0,0.9-0.2,1.2-0.5l8-7.5c0.7-0.7,0.7-1.8,0-2.5c-0.3-0.3-0.8-0.5-1.2-0.5c-0.5,0-0.9,0.2-1.2,0.5
					l-6.8,6.3L20.5,24.4z"/>
			</g>
		</g>
	</g>
</g>
</svg>
