<?xml version="1.0" encoding="utf-8"?>
<!-- Generator: Adobe Illustrator 22.1.0, SVG Export Plug-In . SVG Version: 6.00 Build 0)  -->
<svg version="1.1" id="Layer_1" xmlns="http://www.w3.org/2000/svg" xmlns:xlink="http://www.w3.org/1999/xlink" x="0px" y="0px"
	 viewBox="0 0 48 48" style="enable-background:new 0 0 48 48;" xml:space="preserve">
<style type="text/css">
	.st0{fill:#00C579;}
</style>
<g id="Page-1_6_">
	<g id="Styleguide_6_" transform="translate(-1025.000000, -964.000000)">
		<g id="noun_35026_cc" transform="translate(1025.000000, 964.000000)">
			<path id="Shape_13_" class="st0" d="M42.6,20.9C42.6,14.3,37.3,9,30.7,9h-5l2.7-2.7c0.4-0.4,0.4-1.1,0-1.5
				c-0.4-0.4-1.1-0.4-1.5,0l-4.5,4.5c-0.4,0.4-0.4,1.1,0,1.5l4.5,4.5c0.2,0.2,0.5,0.3,0.7,0.3s0.5-0.1,0.7-0.3
				c0.4-0.4,0.4-1.1,0-1.5l-2.7-2.7h5c5.4,0,9.8,4.4,9.8,9.8c0,2.8-1.2,5.3-3,7v-7c0-0.6-0.5-1-1-1H25.6h-8.3H6.5c-0.6,0-1,0.5-1,1
				v21.6c0,0.6,0.5,1,1,1h30c0.6,0,1-0.5,1-1V30.6C40.6,28.4,42.6,24.9,42.6,20.9z M24.6,21.9v5.7l-0.7-0.3c-0.2-0.1-0.5-0.1-0.8,0
				L21.5,28l-1.7-0.7c-0.1,0-0.3-0.1-0.4-0.1s-0.3,0-0.4,0.1l-0.7,0.3v-5.7H24.6z M35.4,41.4H7.5V21.9h8.7v7.3
				c0,0.3,0.2,0.7,0.5,0.9c0.2,0.1,0.4,0.2,0.6,0.2c0.1,0,0.3,0,0.4-0.1l1.7-0.7l1.7,0.7c0.2,0.1,0.5,0.1,0.8,0l1.7-0.7l1.7,0.7
				c0.3,0.1,0.7,0.1,1-0.1c0.3-0.2,0.5-0.5,0.5-0.9v-7.3h8.8v7.5c-1.4,0.8-3,1.2-4.7,1.2c-0.6,0-1,0.5-1,1c0,0.6,0.5,1,1,1
				c1.7,0,3.3-0.3,4.7-1V41.4z"/>
			<ellipse id="Oval_2_" class="st0" cx="10.1" cy="38.9" rx="1.2" ry="1.2"/>
			<ellipse id="Oval_1_" class="st0" cx="13.6" cy="38.9" rx="1.2" ry="1.2"/>
		</g>
	</g>
</g>
</svg>
