<svg xmlns="http://www.w3.org/2000/svg" width="45" height="15" viewBox="0 0 45 15">
    <g fill="#C9C9C9" fill-rule="evenodd">
        <path d="M19.481 14.641H15.84L18.117.306h3.642zM32.683.656a8.838 8.838 0 0 0-3.266-.61c-3.597 0-6.13 1.952-6.145 4.743-.03 2.059 1.814 3.202 3.192 3.889 1.41.701 1.888 1.16 1.888 1.784-.014.96-1.138 1.404-2.187 1.404-1.454 0-2.233-.229-3.417-.763l-.48-.23-.51 3.219c.855.396 2.429.748 4.062.763 3.822 0 6.31-1.922 6.339-4.896.015-1.632-.959-2.882-3.057-3.904-1.274-.656-2.054-1.098-2.054-1.77.015-.61.66-1.234 2.098-1.234a6.096 6.096 0 0 1 2.713.548l.33.153.494-3.096zM42.02.306h-2.818c-.869 0-1.529.259-1.903 1.19l-5.41 13.145h3.821l.765-2.15h4.676c.104.503.434 2.15.434 2.15h3.372L42.02.306zm-4.496 9.257c.3-.824 1.454-4.011 1.454-4.011-.015.03.299-.84.479-1.373l.254 1.235s.69 3.432.84 4.149h-3.027zM12.798.306L9.23 10.08 8.841 8.1c-.659-2.288-2.727-4.774-5.035-6.01l3.267 12.537h3.851L16.65.306h-3.851z"/>
        <path d="M5.92.306H.06L0 .596c4.57 1.189 7.598 4.057 8.841 7.503L7.568 1.511C7.358.595 6.714.336 5.919.306"/>
    </g>
</svg>
